Coordinates
version=1
nRows=16
nColumns=36
inDegrees=yes

Units are S.I. units (second, meters, Newtons, ...)
If the header above contains a line with 'inDegrees', this indicates whether rotational values are in degrees (yes) or radians (no).

endheader
time	pelvis_tilt	pelvis_list	pelvis_rotation	pelvis_tx	pelvis_ty	pelvis_tz	hip_flexion_r	hip_adduction_r	hip_rotation_r	knee_angle_r	knee_angle_r_beta	ankle_angle_r	subtalar_angle_r	mtp_angle_r	hip_flexion_l	hip_adduction_l	hip_rotation_l	knee_angle_l	knee_angle_l_beta	ankle_angle_l	subtalar_angle_l	mtp_angle_l	lumbar_extension	lumbar_bending	lumbar_rotation	arm_flex_r	arm_add_r	arm_rot_r	elbow_flex_r	pro_sup_r	arm_flex_l	arm_add_l	arm_rot_l	elbow_flex_l	pro_sup_l
      4.96610170	     -1.94930691	      0.39841676	      3.42185274	      0.39793594	      0.93519129	     -0.07421211	     -1.49073090	     -5.25314512	    -14.48775445	      0.53441237	      0.00932726	     -0.20638194	    -10.44682293	     -7.49999987	     -0.55900563	     -4.27024557	     -7.51251293	      1.43245806	      0.02500111	     -0.29168711	     -5.67959038	     -7.49999987	      4.53794698	     -1.85250284	     -2.74627964	    172.69356519	     -0.65302721	     85.31690916	      9.14130712	     64.58774793	    135.88443481	     -3.51457726	     68.16212585	      6.87084461	     66.32835392
      4.98305080	     -2.00028705	      0.43755411	      3.47879142	      0.39804798	      0.93819328	     -0.07415449	     -1.37497307	     -5.34693282	    -14.57408276	      0.52914416	      0.00923531	     -0.27188990	    -10.53107711	     -7.49999987	     -0.44643707	     -4.15461457	     -7.31885657	      1.39807210	      0.02440096	     -0.42162970	     -5.89821653	     -7.49999987	      4.49104536	     -1.92312494	     -2.49673095	    173.05684615	     -1.10094181	     87.69170563	      9.55176898	     64.52124369	    136.14586140	     -3.20095187	     70.70309801	      6.70256978	     66.76972594
      5.00000000	     -1.97798552	      0.45298970	      3.54213534	      0.39809188	      0.93523986	     -0.07411311	     -1.32481800	     -5.42425414	    -14.73221363	      0.57490660	      0.01003401	     -0.28180073	    -10.61822406	     -7.49999987	     -0.40560186	     -4.08442304	     -7.37993624	      1.41199290	      0.02464393	     -0.28506349	     -5.78441836	     -7.49999987	      4.38935987	     -1.88760291	     -2.43374477	    173.31855964	     -1.19248816	     87.57839204	      9.49376656	     64.08967236	    136.41699789	     -3.35418514	     70.56173765	      6.94013002	     66.36719793
      5.01694920	     -1.96673789	      0.47274622	      3.56985060	      0.39830437	      0.93542008	     -0.07408621	     -1.26620484	     -5.47813292	    -14.79994248	      0.63122249	      0.01101691	     -0.30279099	    -10.78721421	     -7.49999987	     -0.36943561	     -4.03135262	     -7.39567169	      1.41812345	      0.02475092	     -0.26314441	     -5.77086087	     -7.49999987	      4.31971199	     -1.90426398	     -2.34792657	    173.62406327	     -1.34450786	     88.28761785	      9.48997072	     64.11768021	    136.68831553	     -3.43657631	     71.81128706	      7.03097654	     65.81806448
      5.03389830	     -1.93206971	      0.47988330	      3.57875538	      0.40232275	      0.93851080	     -0.06983426	     -1.32671116	     -5.40350232	    -14.78757045	      0.65082452	      0.01135903	     -0.30395863	    -10.77848829	     -7.49999987	     -0.42764157	     -4.07405767	     -7.38872140	      1.43908788	      0.02511682	     -0.28392770	     -5.75992281	     -7.49999987	      4.44989804	     -1.96123708	     -2.34945704	    173.67511076	     -1.33339774	     88.28599111	      9.50006999	     64.11565547	    136.71046964	     -3.44298551	     71.81129129	      7.04071401	     65.81723390
      5.05084750	     -1.88233176	      0.40784060	      3.57960285	      0.40240673	      0.93842421	     -0.06984497	     -1.42464060	     -5.24825096	    -14.91069843	      0.64417722	      0.01124301	      0.00654024	    -10.27262881	     -7.49999987	     -0.55001196	     -4.22057546	     -7.54991925	      1.41439915	      0.02468592	     -0.36533538	     -5.41282556	     -7.49999987	      4.48357191	     -1.98441547	     -2.27307895	    173.81213200	     -1.49470959	     88.62966876	      9.81796681	     64.10155899	    136.68509741	     -3.56269282	     70.82282113	      7.77334033	     65.02368857
      5.06779660	     -1.87546882	      0.41577042	      3.57642097	      0.40226855	      0.93815709	     -0.06989130	     -1.48656093	     -5.18236496	    -14.97884792	      0.61145027	      0.01067182	      0.21354726	     -9.95697685	     -7.49999987	     -0.59504533	     -4.27008263	     -7.63802575	      1.42416290	      0.02485633	     -0.37083930	     -5.15399923	     -7.49999987	      4.52890952	     -2.05984701	     -2.40232447	    173.89909419	     -1.69602682	     88.98438712	     10.23331384	     64.08485566	    136.72877313	     -3.52352353	     70.00678246	      7.67570460	     64.76013342
      5.08474580	     -1.89511389	      0.44151811	      3.53422308	      0.40232074	      0.93793469	     -0.06976327	     -1.49332816	     -5.20379142	    -14.82820784	      0.61604577	      0.01075203	      0.29027071	     -9.98471359	     -7.49999987	     -0.64762616	     -4.27982659	     -7.80875950	      1.42541009	      0.02487810	     -0.33676154	     -4.86071039	     -7.49999987	      4.61183738	     -2.11557006	     -2.53292257	    173.86958825	     -1.78906351	     89.10983915	     10.48046625	     63.90839889	    136.87151841	     -3.67868612	     68.85817962	      7.68598078	     64.73350001
      5.10169490	     -1.89034648	      0.41648208	      3.54675310	      0.40230148	      0.93764879	     -0.06979254	     -1.51357919	     -5.18967232	    -15.00019845	      0.63897734	      0.01115226	      0.52338948	     -9.58313712	     -7.49999987	     -0.69290764	     -4.32931554	     -7.81752171	      1.41722322	      0.02473521	     -0.24880772	     -4.81747074	     -7.49999987	      4.63542728	     -2.10707584	     -2.63305891	    173.88948009	     -1.89118824	     89.35185673	     10.76046603	     63.68566271	    137.07367583	     -3.92313388	     68.51527449	      7.87436069	     65.51725905
      5.11864410	     -1.87526638	      0.39330421	      3.57045738	      0.40237653	      0.93769073	     -0.06982436	     -1.55442223	     -5.17380187	    -14.99530463	      0.64487305	      0.01125516	      0.66917364	     -9.40810153	     -7.49999987	     -0.73300555	     -4.37679325	     -7.80760969	      1.40648163	      0.02454774	     -0.28517584	     -4.82549906	     -7.49999987	      4.62864600	     -2.15009762	     -2.81988766	    173.89347476	     -2.04539271	     89.86618409	     10.92082864	     63.25648193	    137.20881945	     -3.84542824	     68.23556462	      7.61359281	     64.97626766
      5.13559320	     -1.91064732	      0.38005387	      3.60035057	      0.40234354	      0.93754609	     -0.06983499	     -1.53079076	     -5.17892439	    -15.06949820	      0.66630538	      0.01162922	      0.82543289	     -9.14246350	     -7.49999987	     -0.72001446	     -4.40172800	     -7.79704784	      1.39276321	      0.02430830	     -0.26409066	     -4.72045264	     -7.49999987	      4.65429305	     -2.18345995	     -2.87407029	    173.95404816	     -2.18078833	     89.90900397	     11.10096035	     63.38158536	    137.29230748	     -3.93065404	     67.52612870	      7.83512277	     64.96258807
      5.15254240	     -1.94071882	      0.35179832	      3.63671426	      0.40243397	      0.93470946	     -0.06967628	     -1.51082148	     -5.15837665	    -14.90499989	      0.69211262	      0.01207964	      0.90219108	     -9.33537457	     -7.49999987	     -0.68017001	     -4.45052814	     -7.82229894	      1.39607971	      0.02436619	     -0.14858998	     -4.68927517	     -7.49999987	      4.66172505	     -2.18919588	     -3.03626153	    174.01487163	     -2.14347156	     89.75518834	     11.15599612	     63.41157297	    137.57673435	     -4.05559043	     68.18904963	      7.83155715	     64.89846375
      5.16949150	     -1.98879748	      0.35277892	      3.67737621	      0.40242725	      0.93768843	     -0.06983055	     -1.47383423	     -5.16632316	    -14.88910234	      0.71912738	      0.01255114	      0.98021746	     -9.32241503	     -7.49999987	     -0.61964884	     -4.46346239	     -7.92505303	      1.38973216	      0.02425540	     -0.05983530	     -4.36339497	     -7.49999987	      4.69393324	     -2.22406778	     -3.04134848	    174.12177467	     -2.10864778	     89.92488328	     11.09894757	     63.34713128	    137.65967911	     -3.98794158	     68.46851018	      7.82403596	     64.66403171
      5.18644070	     -2.01063582	      0.34019662	      3.76496196	      0.40244510	      0.93767067	     -0.06990564	     -1.47382910	     -5.16737487	    -14.96126083	      0.73002986	      0.01274142	      1.08553588	     -9.19115401	     -7.49999987	     -0.55930172	     -4.47949682	     -7.83500464	      1.41049463	      0.02461778	     -0.03469303	     -4.39197261	     -7.49999987	      4.67376948	     -2.16150786	     -3.21548971	    174.35128823	     -2.24154062	     90.81555478	     11.62349983	     62.30169253	    137.91696438	     -4.11387358	     69.77012012	      7.70552682	     64.37480475
      5.20338980	     -2.01135421	      0.34533903	      3.82329706	      0.40240342	      0.93760389	     -0.06993625	     -1.49076296	     -5.17098779	    -14.96139526	      0.74653438	      0.01302948	      1.11263803	     -9.19455006	     -7.49999987	     -0.54826783	     -4.47678410	     -7.84300015	      1.40189317	      0.02446765	     -0.11729639	     -4.34208387	     -7.49999987	      4.66487315	     -2.14499914	     -3.22848402	    174.53727138	     -2.44159116	     91.37100921	     12.15921065	     62.64352079	    137.90578520	     -4.12601731	     69.76064453	      7.73172218	     64.48699030
      5.22033900	     -2.04706297	      0.36218636	      3.87864431	      0.40249018	      0.93475208	     -0.06975587	     -1.47427647	     -5.19441188	    -14.96770737	      0.75856795	      0.01323951	      1.21258088	     -9.16930418	     -7.49999987	     -0.48116621	     -4.46213781	     -7.83529716	      1.44278488	      0.02518135	     -0.05953287	     -4.29445561	     -7.49999987	      4.66923746	     -2.20255268	     -3.61090054	    174.50471272	     -2.57327213	     91.40780666	     12.39263814	     62.27046373	    138.31508517	     -4.30657762	     71.01361688	      7.65211571	     65.05631540
